<svg version="1.1" xmlns="http://www.w3.org/2000/svg" viewBox="0 0 588.016487121582 602.1398010253906" width="588.016487121582" height="602.1398010253906">
  <!-- svg-source:excalidraw -->
  
  <defs>
    <style class="style-fonts">
      @font-face {
        font-family: "Virgil";
        src: url("https://unpkg.com/@excalidraw/excalidraw@undefined/dist/excalidraw-assets/Virgil.woff2");
      }
      @font-face {
        font-family: "Cascadia";
        src: url("https://unpkg.com/@excalidraw/excalidraw@undefined/dist/excalidraw-assets/Cascadia.woff2");
      }
      @font-face {
        font-family: "Assistant";
        src: url("https://unpkg.com/@excalidraw/excalidraw@undefined/dist/excalidraw-assets/Assistant-Regular.woff2");
      }
    </style>
    
  </defs>
  <rect x="0" y="0" width="588.016487121582" height="602.1398010253906" fill="#ffffff"></rect><g stroke-linecap="round" transform="translate(10 10) rotate(0 284.008243560791 291.0699005126953)"><path d="M0.24 1.29 L568.8 -1.11 L567.09 583.89 L-0.54 580.28" stroke="none" stroke-width="0" fill="#343a40"></path><path d="M0 0 C193.55 -0.72, 387.48 -0.34, 568.02 0 M0 0 C181.75 -0.84, 363.75 -0.81, 568.02 0 M568.02 0 C568.71 138.42, 568.07 277.92, 568.02 582.14 M568.02 0 C566.45 194.52, 565.81 388.48, 568.02 582.14 M568.02 582.14 C374.87 581.89, 182.79 581.98, 0 582.14 M568.02 582.14 C439.08 582.55, 310.06 582.4, 0 582.14 M0 582.14 C0.14 442.74, -0.27 301.27, 0 0 M0 582.14 C2.33 391.5, 2.62 201.58, 0 0" stroke="#1971c2" stroke-width="2" fill="none"></path></g><g stroke-linecap="round" transform="translate(210.03847122192383 258.40101623535156) rotate(0 62.15625 56.7958984375)"><path d="M58.38 0.46 C67.54 -0.63, 79.26 2.24, 87.88 5.8 C96.5 9.36, 104.09 15.05, 110.12 21.83 C116.16 28.6, 122.19 37.66, 124.09 46.45 C125.99 55.25, 124.54 66.32, 121.51 74.59 C118.49 82.85, 112.68 89.89, 105.94 96.03 C99.2 102.17, 90.33 108.75, 81.08 111.43 C71.83 114.12, 59.88 113.8, 50.44 112.12 C41 110.44, 31.97 106.54, 24.43 101.36 C16.89 96.17, 9.33 88.98, 5.22 81 C1.12 73.03, -0.9 62.45, -0.2 53.5 C0.49 44.56, 4.41 34.9, 9.38 27.34 C14.35 19.78, 20.69 12.72, 29.63 8.14 C38.56 3.57, 56.53 1.02, 62.99 -0.13 C69.45 -1.27, 68.41 0.16, 68.39 1.27 M56.69 -0.2 C65.74 -1.71, 77.56 0.47, 86.37 4.02 C95.17 7.58, 103.6 14.29, 109.54 21.11 C115.48 27.92, 119.8 36.18, 122 44.91 C124.19 53.65, 125.32 64.98, 122.69 73.52 C120.07 82.05, 113.08 90.02, 106.26 96.14 C99.43 102.25, 90.84 107.69, 81.76 110.22 C72.68 112.75, 61.42 112.93, 51.78 111.32 C42.14 109.71, 31.37 105.39, 23.92 100.55 C16.47 95.71, 11.25 89.82, 7.08 82.28 C2.91 74.73, -1.52 64.45, -1.11 55.29 C-0.69 46.12, 4.48 35.14, 9.57 27.28 C14.67 19.43, 21.5 12.66, 29.45 8.16 C37.4 3.66, 52.54 1.51, 57.27 0.28 C62.01 -0.95, 57.72 -0.22, 57.86 0.77" stroke="none" stroke-width="0" fill="#ffec99"></path><path d="M90.49 4.98 C99.06 7.86, 106.14 16.45, 111.76 23.65 C117.39 30.85, 122.74 39.4, 124.25 48.18 C125.77 56.95, 124.21 68, 120.85 76.28 C117.48 84.56, 111.14 92.08, 104.07 97.86 C96.99 103.64, 87.43 108.69, 78.39 110.97 C69.35 113.25, 59.06 113.27, 49.83 111.56 C40.59 109.86, 30.63 106.45, 22.98 100.77 C15.33 95.08, 7.88 85.55, 3.94 77.47 C-0.01 69.39, -1.66 61.04, -0.69 52.28 C0.27 43.52, 4.27 32.39, 9.73 24.9 C15.19 17.41, 23.63 11.64, 32.08 7.33 C40.53 3.01, 49.9 -1.32, 60.42 -0.98 C70.95 -0.63, 88.55 7.01, 95.22 9.39 C101.9 11.77, 101.09 12.65, 100.46 13.31 M47.99 1.96 C56.63 -0.61, 69.54 -0.39, 78.85 1.99 C88.16 4.36, 96.91 10.09, 103.85 16.19 C110.8 22.29, 117.35 30.54, 120.53 38.58 C123.71 46.62, 124.3 56, 122.92 64.43 C121.54 72.86, 117.92 82, 112.25 89.15 C106.58 96.31, 97.33 103.08, 88.9 107.37 C80.48 111.66, 71.09 114.91, 61.68 114.9 C52.27 114.89, 40.99 111.97, 32.44 107.29 C23.89 102.62, 15.89 94.25, 10.41 86.83 C4.92 79.41, 0.56 71.24, -0.48 62.77 C-1.53 54.3, 0.16 44.24, 4.14 36.02 C8.11 27.79, 15.87 19.26, 23.38 13.45 C30.89 7.64, 44.65 3.19, 49.19 1.15 C53.74 -0.89, 50.32 0.11, 50.67 1.21" stroke="#f08c00" stroke-width="1" fill="none"></path></g><g stroke-linecap="round" transform="translate(17.885391235351562 356.3741912841797) rotate(0 256 99)"><path d="M321.25 25 C366.84 40.1, 418.31 63.14, 447.75 75 C513.5 101.55, 512.02 102.51, 447.75 125 C415.31 137.11, 389.96 148.29, 321.25 173 C257.72 201.53, 260.44 195.56, 192.75 173 C144.72 151.38, 95.97 136.18, 64.25 125 C2.02 103.22, 1.13 98.16, 64.25 75 C97.56 62.86, 128.66 54.76, 192.75 25 C260 -2.29, 259.51 -1.69, 321.25 25" stroke="none" stroke-width="0" fill="#4dabf7"></path><path d="M321.25 25 C361.66 37.92, 401.06 57.2, 447.75 75 M321.25 25 C358.12 38.96, 394.11 53.95, 447.75 75 M447.75 75 C510.15 98.29, 510.13 99.98, 447.75 125 M447.75 75 C513.57 101, 510.72 101.63, 447.75 125 M447.75 125 C401.11 141.96, 354.58 160.01, 321.25 173 M447.75 125 C405.41 141.71, 364.02 156.83, 321.25 173 M321.25 173 C256.53 198.24, 255.98 199.27, 192.75 173 M321.25 173 C257.93 199.15, 258.92 198.36, 192.75 173 M192.75 173 C165.54 161.02, 138.84 152.48, 64.25 125 M192.75 173 C141.59 153.48, 90.96 134.46, 64.25 125 M64.25 125 C1.23 98.3, -0.65 99.06, 64.25 75 M64.25 125 C-1.44 101.83, 0.6 101.56, 64.25 75 M64.25 75 C102.53 60.38, 143.46 43.77, 192.75 25 M64.25 75 C97.5 60.88, 130.85 47.96, 192.75 25 M192.75 25 C255.71 1.34, 258.02 -0.32, 321.25 25 M192.75 25 C257.3 0.5, 255.54 2.2, 321.25 25" stroke="#1e1e1e" stroke-width="2" fill="none"></path></g><g stroke-linecap="round" transform="translate(245.88539123535156 316.3741912841797) rotate(0 27.5 59)"><path d="M35 15 C36.62 27.54, 40.23 30.91, 48 45 C52.22 57.91, 52.26 58.57, 48 75 C43.99 82, 35.36 93.42, 35 103 C25.8 115.08, 25.27 116.82, 21 103 C16.92 93.93, 12.98 91.4, 7 75 C-2.33 63.08, -1.13 56.41, 7 45 C12.93 34.98, 13.98 33.15, 21 15 C26.37 -0.07, 28.68 3.15, 35 15" stroke="none" stroke-width="0" fill="#1e1e1e"></path><path d="M35 15 C37.73 23.86, 39.64 27.55, 48 45 M35 15 C40.46 26.39, 44.82 35.84, 48 45 M48 45 C53.33 61.05, 55.31 59.21, 48 75 M48 45 C54.75 59.64, 54.19 61.23, 48 75 M48 75 C41.92 83.12, 39.92 92.86, 35 103 M48 75 C42.44 86.55, 37.54 97.11, 35 103 M35 103 C28.09 118.91, 26.31 119.63, 21 103 M35 103 C28.81 116.72, 27.88 119.96, 21 103 M21 103 C17.63 98.21, 13.24 88.61, 7 75 M21 103 C17.55 96.44, 15.3 91.28, 7 75 M7 75 C-0.14 59.59, -0.73 58.84, 7 45 M7 75 C-1.15 59.52, -0.15 57.78, 7 45 M7 45 C13.19 33.58, 18.99 22.02, 21 15 M7 45 C12.35 34.81, 17.3 22.98, 21 15 M21 15 C27.87 0.72, 27.49 -0.87, 35 15 M21 15 C26.91 1.89, 27.78 -1.65, 35 15" stroke="#1e1e1e" stroke-width="2" fill="none"></path></g><g transform="translate(420.88539123535156 108.37419128417969) rotate(0 -1 1)" stroke="none"><path d="M0.8 1.38 C0.36 1.88, -2.76 3.34, -3.08 2.95 C-3.41 2.57, -1.61 -0.44, -1.15 -0.93" stroke="none" stroke-width="0" fill="#fff9db" fill-rule="evenodd"></path><path fill="#1e1e1e" d="M 4.24,-1.32 Q 4.24,-1.32 4.30,-0.26 4.36,0.80 3.93,1.76 3.49,2.73 2.65,3.39 1.82,4.05 0.77,4.24 -0.26,4.43 -1.28,4.11 -2.29,3.80 -3.04,3.04 -3.80,2.29 -4.11,1.28 -4.43,0.26 -4.24,-0.77 -4.04,-1.82 -3.39,-2.65 -2.73,-3.49 -1.76,-3.93 -0.79,-4.36 0.26,-4.30 1.32,-4.23 2.23,-3.68 3.14,-3.13 3.69,-2.23 L 4.24,-1.32 Z"></path></g></svg>